P2
# Created by GIMP version 2.10.18 PNM plug-in
84 44
255
0
0
0
0
0
0
0
0
0
0
0
0
0
0
0
0
0
0
0
0
0
0
0
0
0
0
0
0
0
0
0
0
0
0
0
0
0
0
0
0
0
0
0
0
0
0
0
0
0
0
0
0
0
0
0
0
0
0
127
127
127
0
0
0
0
0
0
0
0
0
0
0
0
0
0
0
0
0
0
0
0
0
0
0
0
0
0
0
0
0
0
0
0
0
0
0
0
0
0
0
0
0
0
0
0
0
0
0
0
0
0
0
0
0
0
0
0
0
0
0
0
0
0
0
0
0
0
0
0
0
0
0
0
0
0
0
0
0
0
0
0
0
127
127
127
0
0
0
0
0
0
0
0
0
0
0
0
0
0
0
0
0
0
0
0
0
0
0
0
0
0
0
0
0
0
0
0
0
0
0
0
0
0
0
0
0
0
0
0
0
0
0
0
0
0
0
0
0
0
0
0
0
0
0
0
0
0
0
0
0
0
0
0
0
0
0
0
0
0
0
0
0
0
0
0
0
0
127
127
127
0
0
0
0
0
0
0
0
0
0
0
0
0
0
0
0
0
0
0
0
0
0
0
0
0
0
0
0
0
0
0
0
0
0
0
0
0
0
0
0
0
0
0
0
0
0
0
0
0
0
0
0
0
0
0
0
0
0
0
0
0
0
0
0
0
0
0
0
0
0
0
0
0
0
0
0
0
0
0
0
0
127
127
127
127
0
0
0
0
0
0
0
0
0
0
0
0
0
0
0
0
0
0
0
0
0
0
0
0
0
0
0
0
0
0
0
0
0
0
0
0
0
0
0
0
0
0
0
0
0
0
0
0
0
0
0
0
0
0
0
0
0
0
0
0
0
0
0
0
0
0
0
0
0
0
0
0
0
0
0
0
0
0
0
0
0
127
127
127
0
0
0
0
151
151
151
181
181
181
181
181
0
0
0
0
0
0
0
0
0
0
0
0
0
0
0
0
0
0
0
0
0
0
0
0
0
0
0
0
0
0
0
0
0
0
0
0
0
0
0
0
0
0
0
59
59
59
59
0
0
0
0
0
0
0
0
0
0
0
0
0
0
0
0
0
0
0
0
0
0
127
127
127
151
151
151
151
151
151
151
181
181
181
181
181
181
0
0
0
0
0
0
0
0
0
0
0
0
0
0
0
0
0
0
0
0
0
0
0
0
0
0
0
0
0
0
0
0
0
0
0
0
0
59
59
59
59
59
59
59
59
0
0
0
0
0
0
0
0
0
0
95
95
95
95
0
0
0
0
0
0
0
127
127
127
127
127
151
151
151
151
151
151
151
181
181
181
181
181
181
0
0
0
0
0
0
0
0
0
0
0
0
0
0
0
0
0
0
0
0
0
0
0
0
0
0
0
0
0
0
0
0
43
43
43
43
43
59
59
59
59
59
59
59
0
0
0
0
0
0
0
0
0
0
0
95
95
95
95
95
95
95
127
127
127
127
127
127
127
127
151
151
151
151
151
151
151
181
181
181
181
181
181
181
0
0
0
0
0
0
0
0
0
0
0
0
0
0
0
0
0
0
0
0
0
0
0
0
0
0
0
0
31
31
43
43
43
43
43
43
43
59
59
59
59
59
0
0
0
0
0
0
0
0
0
0
0
0
0
95
95
95
95
95
95
95
127
127
127
127
127
127
127
151
151
151
0
0
0
0
0
0
0
0
0
181
181
181
210
0
0
0
0
0
0
0
0
0
0
0
0
0
0
0
0
0
0
0
0
0
0
0
0
0
31
31
31
31
43
43
43
43
43
43
59
59
59
59
0
0
0
0
0
0
0
0
0
0
0
0
0
0
0
0
95
95
95
95
95
127
127
127
127
127
127
127
0
151
151
151
0
0
0
0
0
0
0
0
0
181
181
181
210
0
0
0
0
0
0
0
0
0
12
12
12
0
0
0
0
0
0
0
0
31
31
31
31
31
31
31
31
43
43
43
43
43
43
59
59
0
0
0
0
0
0
0
0
0
0
0
0
0
0
95
95
0
0
0
0
0
0
0
0
0
0
0
0
0
0
0
0
151
151
151
0
0
0
0
0
0
0
0
0
0
181
210
210
0
210
210
210
210
243
243
0
12
12
12
12
12
12
12
12
12
12
12
31
31
31
31
31
31
31
31
31
43
43
43
43
43
59
59
0
0
0
0
0
0
0
0
0
0
0
0
0
0
0
95
95
95
95
0
0
0
0
0
0
0
0
0
0
0
0
0
0
151
151
151
0
0
0
0
0
0
0
0
0
0
210
210
210
210
210
210
210
243
243
243
0
12
12
12
12
12
12
12
12
12
12
31
31
31
31
31
31
31
31
31
43
43
43
43
43
59
59
0
0
0
0
0
0
0
0
0
0
0
0
0
0
0
0
95
95
95
95
95
95
95
0
0
0
0
0
0
0
0
0
0
0
151
151
151
0
0
0
0
0
0
181
181
181
181
210
210
210
210
210
210
210
243
243
0
0
0
12
12
12
12
12
12
12
12
31
31
31
31
31
31
31
31
31
31
43
43
43
43
43
59
0
0
0
0
0
0
0
0
0
0
0
0
0
0
0
0
0
0
95
95
95
95
95
95
127
127
127
127
127
127
127
127
127
151
151
151
151
151
151
151
181
181
181
181
181
181
181
181
210
210
210
210
0
0
0
0
0
0
0
0
0
12
12
12
12
12
12
12
31
31
31
31
31
31
31
31
43
43
43
43
43
0
0
0
0
0
0
0
0
0
0
0
0
0
0
0
0
0
0
0
0
0
0
0
0
0
95
95
127
127
127
127
127
127
127
127
127
151
151
151
151
151
151
151
181
181
181
181
181
181
0
0
210
210
210
0
0
0
0
0
0
0
0
0
0
0
12
12
12
12
31
31
31
31
0
0
0
0
0
0
0
0
43
43
0
0
0
0
0
0
0
0
0
0
0
0
0
0
0
0
0
0
0
0
0
0
0
0
0
0
0
0
0
0
0
0
0
0
0
0
0
0
0
151
151
151
0
0
0
0
0
0
0
0
0
0
210
210
210
0
0
0
0
0
0
0
0
0
0
0
0
0
0
0
0
0
0
0
0
0
0
0
0
0
0
0
43
43
43
0
0
0
0
0
0
0
0
0
0
0
0
0
0
0
0
0
0
0
0
0
0
0
0
0
0
0
0
0
0
0
0
0
0
0
0
0
0
151
151
151
0
0
0
0
0
0
0
0
0
0
210
210
210
0
0
0
0
0
0
0
0
0
0
0
0
0
0
0
0
0
0
0
0
0
0
0
0
0
0
0
43
43
59
0
0
0
0
0
0
0
0
0
0
0
0
0
0
0
0
0
0
0
0
0
0
0
0
0
0
0
0
0
0
0
0
0
0
0
0
0
0
151
151
151
0
0
0
0
0
0
0
0
181
210
210
210
210
0
0
0
0
0
0
0
0
0
0
0
0
0
0
0
0
0
0
0
0
0
0
0
0
0
0
0
43
43
59
0
0
0
0
0
0
0
0
0
0
0
0
0
0
0
0
0
0
0
0
0
0
0
0
0
0
0
127
127
127
127
127
127
127
151
151
151
151
151
151
151
151
181
181
181
181
181
181
181
181
210
210
210
210
210
0
0
0
0
0
0
0
0
0
0
0
0
0
0
0
0
0
0
0
0
0
0
0
0
0
0
43
59
59
0
0
0
0
0
0
0
0
0
0
75
75
0
0
0
0
0
0
0
0
0
0
0
0
0
0
0
127
127
127
127
127
127
127
151
151
151
151
151
151
151
181
181
181
181
181
181
181
181
181
210
210
210
210
210
0
0
0
0
0
0
0
0
0
0
0
0
0
0
0
0
0
0
0
0
0
0
0
0
0
0
43
59
59
0
0
0
0
75
75
75
75
75
75
75
75
75
95
95
0
0
0
0
0
0
0
0
0
0
0
0
0
127
127
127
127
151
151
151
151
151
151
151
151
151
181
181
181
181
181
181
181
181
210
210
210
210
210
243
0
0
0
0
0
0
0
0
0
0
0
0
0
0
0
31
31
0
0
0
0
0
0
0
0
0
59
59
59
59
59
59
75
75
75
75
75
75
75
75
75
75
95
95
95
0
0
0
0
0
0
0
0
0
0
0
0
0
127
127
127
151
151
151
151
151
151
151
151
181
0
0
0
0
0
0
0
0
0
0
0
0
0
0
0
0
0
0
0
0
0
0
0
0
0
0
0
0
0
31
31
31
43
43
0
0
43
43
43
59
59
59
59
59
59
75
75
75
75
75
75
75
75
75
75
95
95
95
95
0
0
0
0
0
0
0
0
0
0
0
0
0
0
0
0
0
0
0
0
0
0
151
151
181
0
0
0
0
0
0
0
0
0
0
0
0
0
0
0
0
0
0
0
0
0
0
0
0
0
0
0
0
0
31
31
43
43
43
43
43
43
43
43
59
59
59
59
59
59
75
75
75
75
75
75
75
0
0
0
0
95
95
95
0
0
0
0
0
0
0
0
0
0
0
0
0
0
0
0
0
0
0
0
0
0
151
181
181
0
0
0
0
0
0
0
0
0
210
210
210
243
0
0
0
0
0
0
0
0
0
0
0
0
0
0
0
0
0
43
43
43
43
43
43
43
43
59
59
59
59
59
59
75
75
75
75
0
0
0
0
0
0
0
0
0
0
0
0
0
0
0
0
0
0
0
0
0
0
0
0
127
127
0
0
0
151
151
151
151
151
181
181
181
181
181
181
181
181
181
210
210
210
210
210
243
0
0
0
0
0
0
0
0
0
0
0
0
0
0
0
0
0
0
0
43
43
43
43
43
59
59
59
59
59
59
75
0
0
0
0
0
0
0
0
0
0
0
0
0
0
0
0
0
0
0
0
0
0
0
0
0
0
0
0
0
127
151
151
151
151
151
151
151
151
181
181
181
181
181
181
181
181
181
210
210
210
210
210
0
0
0
0
0
0
0
0
0
0
0
0
0
0
0
0
0
0
0
0
0
0
0
0
0
0
59
59
59
59
59
75
75
0
0
0
0
0
0
0
0
0
0
0
0
0
0
0
0
0
0
0
0
0
0
0
0
0
0
0
0
127
151
151
151
151
151
151
151
181
181
181
181
181
181
181
181
181
210
0
0
0
0
0
0
0
0
0
0
0
0
0
0
0
0
0
0
0
0
0
0
0
0
0
0
0
0
0
0
0
59
59
59
59
75
75
75
0
0
0
0
0
0
0
0
0
0
0
0
0
0
0
0
0
0
0
0
0
0
0
127
127
127
0
0
0
0
0
0
0
0
0
0
181
181
181
181
0
0
0
0
0
0
0
210
210
210
210
243
243
243
243
243
0
0
0
0
0
0
0
0
0
0
0
0
0
0
0
0
0
0
0
0
0
59
59
59
0
75
75
75
75
0
0
0
0
0
0
0
0
0
0
0
0
0
0
0
0
0
0
0
0
0
127
127
127
127
127
127
151
151
151
151
151
151
151
181
181
181
181
181
181
181
181
181
181
210
210
210
210
210
243
243
243
243
243
243
243
0
0
0
0
0
0
0
0
0
0
0
0
0
0
0
0
0
0
0
59
59
59
59
0
75
75
75
75
0
0
0
0
0
0
0
0
0
0
0
0
0
0
0
0
0
0
0
0
0
0
127
127
127
127
127
151
151
151
151
151
151
151
181
181
181
181
181
181
181
181
181
210
210
0
0
0
0
0
0
0
0
243
243
243
0
0
0
0
0
0
0
0
0
0
0
0
0
0
0
0
0
0
59
59
59
59
59
0
0
75
75
75
75
0
0
0
0
0
0
0
0
0
0
0
0
0
0
0
0
0
0
0
0
0
0
0
0
0
0
0
0
0
0
0
0
0
0
0
0
0
0
0
0
0
0
0
0
0
0
0
0
0
0
0
0
0
0
0
0
0
0
0
0
0
0
0
0
0
0
0
0
0
0
0
0
59
59
59
59
59
0
0
0
75
75
75
75
75
0
0
0
0
0
0
0
0
0
0
0
0
0
0
0
0
0
0
0
0
0
0
0
0
0
0
0
0
0
0
0
0
0
0
0
0
0
0
0
0
0
0
0
0
0
0
0
0
0
0
0
0
0
0
0
0
0
0
0
0
0
0
0
0
0
0
0
0
0
0
59
59
59
59
59
0
0
0
0
0
75
75
75
75
75
0
0
0
0
0
0
0
0
0
0
0
0
0
0
0
0
0
0
0
0
0
127
127
0
0
0
0
0
0
0
0
181
181
181
181
181
181
181
181
181
210
210
210
210
210
0
0
0
0
0
0
0
0
0
0
0
0
0
0
0
0
0
0
0
0
0
0
0
0
59
59
59
59
0
0
0
0
0
0
75
75
75
75
75
95
0
0
0
0
0
0
0
0
0
0
0
0
0
0
0
0
0
0
0
0
127
127
151
151
151
151
151
151
181
181
181
181
181
181
181
181
181
181
181
210
210
210
210
210
210
243
0
0
0
0
0
0
0
0
0
0
0
0
0
0
0
0
0
0
0
0
0
59
59
59
59
0
0
0
0
0
0
0
0
75
75
75
95
95
95
0
0
0
0
0
0
0
0
0
0
0
0
0
0
0
0
0
0
0
127
151
151
151
151
151
151
151
181
181
181
181
181
181
181
181
181
181
181
210
210
210
210
210
210
243
243
0
0
0
0
0
0
0
0
0
0
0
0
0
0
0
0
0
0
0
59
59
59
59
0
0
0
0
0
0
0
0
0
0
95
95
95
95
95
95
0
0
0
0
0
0
0
0
0
0
0
0
0
0
0
0
0
0
0
151
151
151
0
0
0
0
0
0
0
0
0
0
0
0
0
0
0
0
0
0
0
210
210
243
243
0
0
0
0
0
0
0
0
0
0
0
0
0
0
0
0
0
0
59
59
59
59
59
0
0
0
0
0
0
0
0
0
0
0
95
95
95
95
95
95
95
95
0
0
0
0
0
0
0
0
0
0
0
0
0
0
0
0
151
151
151
0
0
0
0
0
0
0
0
0
0
0
0
0
0
0
0
0
0
0
0
243
243
243
0
0
0
0
0
0
0
0
0
0
0
0
0
0
0
59
59
59
59
59
59
59
0
0
0
0
0
0
0
0
0
0
0
0
0
95
95
95
95
95
95
95
127
0
0
0
0
0
0
0
0
0
0
0
0
0
0
0
151
151
151
151
151
151
181
181
181
181
181
181
181
181
181
0
0
0
210
210
210
210
210
243
243
243
0
0
0
0
0
0
0
0
0
0
0
0
43
59
59
59
59
59
59
59
59
0
0
0
0
0
0
0
0
0
0
0
0
0
0
0
0
95
95
95
95
95
127
127
127
127
127
127
127
127
0
0
0
0
0
0
0
0
151
151
151
151
151
181
181
181
181
181
181
0
181
181
181
181
210
210
210
210
210
210
210
243
243
243
0
0
0
0
0
0
0
0
0
0
43
43
43
59
59
59
59
59
59
59
0
0
0
0
0
0
0
0
0
0
0
0
0
0
0
0
0
0
95
95
127
127
127
127
127
127
127
127
127
127
0
0
0
0
0
0
0
0
0
151
151
0
0
0
0
0
0
0
0
0
0
0
0
0
0
0
0
0
0
0
0
0
243
243
0
0
0
0
0
0
0
43
43
43
43
43
59
59
59
59
59
59
59
59
0
0
0
0
0
0
0
0
0
0
0
0
0
0
0
0
0
0
0
0
0
0
127
127
127
127
0
0
0
0
0
0
0
0
0
0
0
0
0
151
151
151
181
181
181
181
181
181
181
181
181
181
181
181
210
210
210
210
210
210
243
243
243
243
0
0
0
0
0
0
0
43
43
43
43
59
59
59
59
59
59
59
0
0
0
0
0
0
0
0
0
0
0
0
0
0
0
0
0
0
0
0
0
0
0
0
0
0
0
0
0
0
0
0
0
0
0
0
0
0
0
0
0
151
151
151
181
181
181
181
181
181
181
181
181
181
181
210
210
210
210
210
210
210
243
243
243
243
0
0
0
0
0
0
0
0
0
0
59
59
59
59
59
59
0
0
0
0
0
0
0
0
0
0
0
0
0
0
0
0
0
0
0
0
0
0
0
0
0
0
0
0
0
0
0
0
0
0
0
0
0
0
0
0
0
0
0
151
0
181
181
181
181
181
181
181
181
181
181
181
210
210
210
210
210
0
0
0
0
0
0
243
0
0
0
0
0
0
0
0
0
0
0
0
0
0
0
0
0
0
0
0
0
0
0
0
0
0
0
0
0
0
0
0
0
0
0
0
0
0
0
0
0
0
0
0
0
0
0
0
0
0
0
0
0
0
0
0
0
0
0
0
0
0
0
0
0
0
0
0
0
0
0
0
0
0
0
0
0
0
0
0
0
0
0
0
0
0
0
0
0
0
0
